# xmcd
#
# Track frame offsets:
#	150
#	15817
#	34600
#	54335
#	78020
#	94568
#	111800
#	131097
#	148094
#	166977
#	181753
#
# Disc length: 2653 seconds
#
# Revision: 2
# Processed by: cddbd v1.5.2PL0 Copyright (c) Steve Scherf et al.
# Submitted via: audiograbber 1.83.01
#
DISCID=780a5b0b
DTITLE=Crocell - The God We Drowned
DYEAR=2008
DGENRE=Metal
TTITLE0=Behind The Veil
TTITLE1=Apotheosis
TTITLE2=Winter Is Coming
TTITLE3=The God We Drowned
TTITLE4=Death Knell
TTITLE5=The Chosen
TTITLE6=The Culling
TTITLE7=We Are The Dead
TTITLE8=Words Of Woe
TTITLE9=The New Blood
TTITLE10=To Those That I Shall Kill
EXTD=www.myspace.com/crocelldk
EXTT0=
EXTT1=
EXTT2=
EXTT3=
EXTT4=
EXTT5=
EXTT6=
EXTT7=
EXTT8=
EXTT9=
EXTT10=
PLAYORDER=
